<svg xmlns="http://www.w3.org/2000/svg" width="1200" height="620" viewBox="0 0 1200 620" role="img" aria-labelledby="title desc">
  <title id="title">print 函式把程式內容顯示在輸出區</title>
  <desc id="desc">從 Python 程式碼到 Python 執行，再到輸出區顯示結果的流程圖。</desc>
  <defs>
    <linearGradient id="background" x1="0" y1="0" x2="1" y2="1"><stop stop-color="#edfdfa"/><stop offset="1" stop-color="#eef5ff"/></linearGradient>
    <filter id="shadow" x="-15%" y="-20%" width="130%" height="150%"><feDropShadow dx="0" dy="11" stdDeviation="10" flood-color="#0c5c62" flood-opacity=".15"/></filter>
    <marker id="arrow" markerWidth="12" markerHeight="12" refX="10" refY="6" orient="auto"><path d="M0 0L12 6L0 12Z" fill="#0f766e"/></marker>
  </defs>
  <rect width="1200" height="620" rx="34" fill="url(#background)"/>
  <circle cx="80" cy="78" r="125" fill="#b7f4e4" opacity=".55"/><circle cx="1145" cy="570" r="175" fill="#c9e1ff" opacity=".55"/>
  <text x="600" y="70" text-anchor="middle" font-family="'Microsoft JhengHei', sans-serif" font-size="40" font-weight="700" fill="#123f43">一行 print()，結果怎樣出現在畫面？</text>
  <g filter="url(#shadow)">
    <rect x="70" y="155" width="325" height="290" rx="24" fill="#102a43"/>
    <rect x="70" y="155" width="325" height="48" rx="24" fill="#173c5b"/>
    <circle cx="104" cy="179" r="7" fill="#fb7185"/><circle cx="128" cy="179" r="7" fill="#fbbf24"/><circle cx="152" cy="179" r="7" fill="#34d399"/>
    <text x="233" y="184" text-anchor="middle" font-family="'Microsoft JhengHei', sans-serif" font-size="18" fill="#d9f7ee">你的程式碼</text>
    <text x="105" y="287" font-family="Consolas, monospace" font-size="29" font-weight="700" fill="#d9f7ee">print(</text>
    <text x="105" y="333" font-family="Consolas, monospace" font-size="29" font-weight="700" fill="#fcd34d">&quot;你好！&quot;</text>
    <text x="105" y="379" font-family="Consolas, monospace" font-size="29" font-weight="700" fill="#d9f7ee">)</text>
  </g>
  <path d="M425 300 H530" stroke="#0f766e" stroke-width="10" stroke-linecap="round" marker-end="url(#arrow)"/>
  <text x="476" y="264" text-anchor="middle" font-family="'Microsoft JhengHei', sans-serif" font-size="22" font-weight="700" fill="#0f766e">執行</text>
  <g filter="url(#shadow)">
    <circle cx="606" cy="300" r="103" fill="#0f766e"/>
    <path d="M566 282c0-24 18-39 40-39s40 15 40 39v37c0 24-18 39-40 39s-40-15-40-39z" fill="none" stroke="#e8fff8" stroke-width="11" stroke-linecap="round"/>
    <path d="M581 285h50M581 316h50" stroke="#e8fff8" stroke-width="11" stroke-linecap="round"/>
    <text x="606" y="440" text-anchor="middle" font-family="'Microsoft JhengHei', sans-serif" font-size="25" font-weight="700" fill="#0b5857">Python</text>
  </g>
  <path d="M715 300 H820" stroke="#0f766e" stroke-width="10" stroke-linecap="round" marker-end="url(#arrow)"/>
  <text x="766" y="264" text-anchor="middle" font-family="'Microsoft JhengHei', sans-serif" font-size="22" font-weight="700" fill="#0f766e">顯示</text>
  <g filter="url(#shadow)">
    <rect x="845" y="155" width="285" height="290" rx="24" fill="#fffdf7" stroke="#0c5c62" stroke-width="5"/>
    <rect x="845" y="155" width="285" height="54" rx="22" fill="#e5f7f2"/>
    <text x="987" y="190" text-anchor="middle" font-family="'Microsoft JhengHei', sans-serif" font-size="19" font-weight="700" fill="#0c5c62">輸出區</text>
    <text x="987" y="326" text-anchor="middle" font-family="'Microsoft JhengHei', sans-serif" font-size="38" font-weight="700" fill="#173c3b">你好！</text>
    <path d="M893 359h188" stroke="#c9e7df" stroke-width="3"/>
    <text x="987" y="395" text-anchor="middle" font-family="'Microsoft JhengHei', sans-serif" font-size="18" fill="#58716a">你看得到的結果</text>
  </g>
  <text x="600" y="548" text-anchor="middle" font-family="'Microsoft JhengHei', sans-serif" font-size="27" fill="#365c58">print() 會把括號內的文字、數字或計算結果顯示在輸出區。</text>
</svg>
